<svg width="202" height="50" viewBox="0 0 202 50" fill="none" xmlns="http://www.w3.org/2000/svg">
<path d="M20.2656 5.1875C28.879 5.1875 35.2844 7.0625 39.4818 10.8125C43.6792 14.5208 45.7779 19.8542 45.7779 26.8125C45.7779 31.3542 44.7504 35.3333 42.6955 38.75C40.6405 42.125 37.6455 44.75 33.7104 46.625C29.819 48.5 25.1407 49.4375 19.6753 49.4375C18.9758 49.4375 18.0576 49.4167 16.9208 49.375C15.784 49.3333 14.6035 49.3125 13.3792 49.3125C12.155 49.2708 11.0619 49.25 10.1 49.25C8.17619 49.25 6.27424 49.2708 4.39416 49.3125C2.55779 49.3125 1.09307 49.3542 0 49.4375V48.1875C1.39913 48.1042 2.44848 47.9375 3.14805 47.6875C3.84762 47.4375 4.30671 46.9375 4.52532 46.1875C4.78766 45.4375 4.91883 44.3125 4.91883 42.8125V11.8125C4.91883 10.2708 4.78766 9.14584 4.52532 8.4375C4.30671 7.6875 3.82576 7.1875 3.08247 6.9375C2.3829 6.64584 1.35541 6.47917 0 6.4375V5.1875C1.09307 5.22917 2.55779 5.29167 4.39416 5.375C6.27424 5.41667 8.13247 5.41667 9.96883 5.375C11.5429 5.33334 13.3136 5.29167 15.2812 5.25C17.2924 5.20834 18.9539 5.1875 20.2656 5.1875ZM20.2 6.3125C18.1887 6.3125 16.8771 6.66667 16.2649 7.375C15.6528 8.08334 15.3468 9.52084 15.3468 11.6875V42.9375C15.3468 45.1042 15.6528 46.5417 16.2649 47.25C16.9208 47.9583 18.2543 48.3125 20.2656 48.3125C23.9383 48.3125 26.824 47.5 28.9227 45.875C31.0652 44.2083 32.5955 41.7917 33.5136 38.625C34.4318 35.4583 34.8909 31.6042 34.8909 27.0625C34.8909 22.3958 34.3881 18.5417 33.3825 15.5C32.4206 12.4167 30.8684 10.125 28.726 8.625C26.5836 7.08334 23.7416 6.3125 20.2 6.3125ZM58.7877 1C60.624 1 62.0669 1.4375 63.1163 2.3125C64.2093 3.14584 64.7559 4.3125 64.7559 5.8125C64.7559 7.3125 64.2093 8.5 63.1163 9.375C62.0669 10.2083 60.624 10.625 58.7877 10.625C56.9513 10.625 55.4866 10.2083 54.3935 9.375C53.3442 8.5 52.8195 7.3125 52.8195 5.8125C52.8195 4.3125 53.3442 3.14584 54.3935 2.3125C55.4866 1.4375 56.9513 1 58.7877 1ZM63.9033 16.4375V43.625C63.9033 45.375 64.2093 46.5625 64.8214 47.1875C65.4773 47.8125 66.5704 48.125 68.1007 48.125V49.4375C67.3137 49.3958 66.0894 49.3542 64.4279 49.3125C62.7665 49.2292 61.0831 49.1875 59.3779 49.1875C57.6727 49.1875 55.9457 49.2292 54.1968 49.3125C52.4479 49.3542 51.1362 49.3958 50.2617 49.4375V48.125C51.792 48.125 52.8632 47.8125 53.4753 47.1875C54.1312 46.5625 54.4591 45.375 54.4591 43.625V23.9375C54.4591 22.0625 54.1531 20.6875 53.5409 19.8125C52.9725 18.8958 51.8795 18.4375 50.2617 18.4375V17.125C51.6608 17.25 53.0163 17.3125 54.3279 17.3125C56.1643 17.3125 57.8695 17.25 59.4435 17.125C61.0613 16.9583 62.5479 16.7292 63.9033 16.4375ZM102.37 17.125V18.375C101.54 18.5833 100.753 19.0833 100.009 19.875C99.2659 20.625 98.5445 21.9167 97.8449 23.75L88.2696 49.5625C87.5701 49.5208 86.8485 49.5 86.1052 49.5C85.4056 49.5 84.706 49.5208 84.0065 49.5625L72.3324 21.9375C71.6329 20.3125 70.9333 19.3333 70.2337 19C69.5779 18.625 69.0095 18.4375 68.5285 18.4375V17.125C69.9277 17.2083 71.3705 17.2917 72.8571 17.375C74.3874 17.4167 76.0489 17.4375 77.8415 17.4375C79.1969 17.4375 80.6179 17.4167 82.1045 17.375C83.6348 17.2917 85.0558 17.2083 86.3675 17.125V18.4375C85.4493 18.4375 84.6186 18.4792 83.8753 18.5625C83.1757 18.6458 82.6948 18.9167 82.4324 19.375C82.1701 19.8333 82.2138 20.6458 82.5636 21.8125L90.2372 41.1875L89.5813 42.0625L94.7625 28.375C95.5932 26.125 95.943 24.2917 95.8118 22.875C95.6807 21.4167 95.1997 20.3333 94.369 19.625C93.5382 18.875 92.4233 18.4583 91.0242 18.375V17.125C91.68 17.1667 92.3796 17.2083 93.1229 17.25C93.9099 17.25 94.6532 17.2708 95.3527 17.3125C96.096 17.3125 96.7519 17.3125 97.3203 17.3125C98.1947 17.3125 99.1129 17.2917 100.075 17.25C101.037 17.2083 101.802 17.1667 102.37 17.125ZM112.524 1C114.36 1 115.803 1.4375 116.852 2.3125C117.945 3.14584 118.492 4.3125 118.492 5.8125C118.492 7.3125 117.945 8.5 116.852 9.375C115.803 10.2083 114.36 10.625 112.524 10.625C110.687 10.625 109.223 10.2083 108.129 9.375C107.08 8.5 106.555 7.3125 106.555 5.8125C106.555 4.3125 107.08 3.14584 108.129 2.3125C109.223 1.4375 110.687 1 112.524 1ZM117.639 16.4375V43.625C117.639 45.375 117.945 46.5625 118.557 47.1875C119.213 47.8125 120.306 48.125 121.837 48.125V49.4375C121.05 49.3958 119.825 49.3542 118.164 49.3125C116.502 49.2292 114.819 49.1875 113.114 49.1875C111.409 49.1875 109.682 49.2292 107.933 49.3125C106.184 49.3542 104.872 49.3958 103.998 49.4375V48.125C105.528 48.125 106.599 47.8125 107.211 47.1875C107.867 46.5625 108.195 45.375 108.195 43.625V23.9375C108.195 22.0625 107.889 20.6875 107.277 19.8125C106.708 18.8958 105.615 18.4375 103.998 18.4375V17.125C105.397 17.25 106.752 17.3125 108.064 17.3125C109.9 17.3125 111.605 17.25 113.179 17.125C114.797 16.9583 116.284 16.7292 117.639 16.4375ZM159.991 5.0625L175.928 44.1875C176.54 45.6875 177.218 46.7292 177.961 47.3125C178.748 47.8542 179.448 48.1458 180.06 48.1875V49.4375C178.748 49.3542 177.196 49.3125 175.403 49.3125C173.654 49.2708 171.884 49.25 170.091 49.25C168.08 49.25 166.178 49.2708 164.385 49.3125C162.593 49.3125 161.172 49.3542 160.122 49.4375V48.1875C162.352 48.1042 163.751 47.75 164.32 47.125C164.932 46.4583 164.801 45.0625 163.926 42.9375L152.777 13.875L153.957 12.25L143.988 37C143.027 39.2917 142.436 41.1667 142.218 42.625C142.043 44.0833 142.152 45.2083 142.546 46C142.983 46.7917 143.66 47.3542 144.579 47.6875C145.541 47.9792 146.677 48.1458 147.989 48.1875V49.4375C146.546 49.3542 145.169 49.3125 143.857 49.3125C142.546 49.2708 141.212 49.25 139.857 49.25C138.895 49.25 137.977 49.2708 137.102 49.3125C136.271 49.3125 135.528 49.3542 134.872 49.4375V48.1875C135.79 48.0208 136.73 47.4583 137.692 46.5C138.654 45.5417 139.594 43.9167 140.512 41.625L155.466 5.0625C156.165 5.10417 156.909 5.125 157.696 5.125C158.526 5.125 159.291 5.10417 159.991 5.0625ZM164.582 31.4375V32.6875H145.038L145.694 31.4375H164.582ZM200.815 5.1875V6.4375C199.416 6.47917 198.345 6.64584 197.601 6.9375C196.902 7.1875 196.443 7.6875 196.224 8.4375C196.006 9.14584 195.896 10.2708 195.896 11.8125V42.8125C195.896 44.3125 196.006 45.4375 196.224 46.1875C196.487 46.9375 196.967 47.4375 197.667 47.6875C198.367 47.9375 199.416 48.1042 200.815 48.1875V49.4375C199.635 49.3542 198.148 49.3125 196.355 49.3125C194.563 49.2708 192.748 49.25 190.912 49.25C188.769 49.25 186.78 49.2708 184.944 49.3125C183.151 49.3125 181.686 49.3542 180.55 49.4375V48.1875C181.949 48.1042 182.998 47.9375 183.698 47.6875C184.397 47.4375 184.856 46.9375 185.075 46.1875C185.337 45.4375 185.468 44.3125 185.468 42.8125V11.8125C185.468 10.2708 185.337 9.14584 185.075 8.4375C184.856 7.6875 184.375 7.1875 183.632 6.9375C182.932 6.64584 181.905 6.47917 180.55 6.4375V5.1875C181.686 5.22917 183.151 5.27084 184.944 5.3125C186.78 5.35417 188.769 5.375 190.912 5.375C192.748 5.375 194.563 5.35417 196.355 5.3125C198.148 5.27084 199.635 5.22917 200.815 5.1875Z" fill="#D9D9D9"/>
</svg>
